<svg width="106" height="31" viewBox="0 0 106 31" fill="none" xmlns="http://www.w3.org/2000/svg">
<path d="M6.36 0.298523C2.8 0.298523 0.799998 2.09852 0.799998 6.09853V7.05852C0.799998 10.0185 1.36 11.9385 3.28 14.4185L6.16 18.0985C7.8 20.2585 8 20.9385 8 23.0985V23.7785C8 25.6585 7.6 26.3385 6.52 26.3385C5.52 26.3385 5.04 25.6585 5.04 24.2585V19.0585H0.559998V25.0185C0.559998 28.6985 2.44 30.6585 6.08 30.6585H6.96C10.96 30.6585 12.8 28.0585 12.8 23.6985V22.7385C12.8 19.3385 12.16 17.8585 10.12 15.2185L7.24 11.4985C5.72 9.53852 5.4 8.61852 5.4 6.93852V6.37852C5.4 4.97853 5.64 4.29852 6.72 4.29852C7.8 4.29852 8 5.05852 8 6.05852V10.3385H12.36V5.45852C12.36 1.93852 10.92 0.298523 7.2 0.298523H6.36Z" fill="black"/>
<path d="M22.4097 30.3385V26.2185H20.7297C19.9697 26.2185 19.8897 25.9785 19.8897 25.2185V12.8985H22.4097V8.81852H19.8897V1.73852H15.6097V8.81852H13.1697V12.8985H15.6097V27.6985C15.6097 29.6185 16.7297 30.3385 18.1697 30.3385H22.4097Z" fill="black"/>
<path d="M23.4125 27.0985C23.4125 28.8185 24.4125 30.4585 26.1325 30.4585H26.2525C28.0925 30.4585 29.2125 28.8985 29.7725 27.8985C29.7725 29.6985 30.2525 30.3385 31.1725 30.3385H35.2525V26.3785H34.4925C33.8925 26.3785 33.8125 26.2185 33.8125 25.6985V12.8985C33.8125 10.6585 33.0925 8.65852 28.9725 8.65852H28.1725C24.1325 8.65852 23.6525 11.1385 23.6525 12.7385V15.7785H27.4925V13.4985C27.4925 12.5385 27.7325 12.1385 28.5725 12.1385H28.6525C29.4125 12.1385 29.6925 12.4585 29.6925 13.5385V14.8985C29.6925 15.4985 29.6125 15.5385 29.1725 15.8185C28.5725 16.1385 26.4125 17.0985 25.4525 17.7385C23.8925 18.6985 23.4125 19.9385 23.4125 22.0585V27.0985ZM29.6925 25.0185C29.6925 26.0985 29.3325 26.6185 28.6125 26.6185C27.9325 26.6185 27.6125 26.1385 27.6125 25.2185V22.2585C27.6125 21.4185 27.7325 20.9785 28.1725 20.5385C28.6125 20.0985 29.2125 19.7385 29.6925 19.4585V25.0185Z" fill="black"/>
<path d="M40.1953 8.81852H35.9953V30.3385H40.2753V14.1385C40.2753 13.2985 40.3153 12.8185 40.9953 12.8185C41.6753 12.8185 41.7153 13.2185 41.7153 14.1385V18.9385H45.8753V11.1385C45.8753 9.69852 45.1953 8.69852 43.6353 8.69852H43.4753C41.4753 8.69852 40.5553 10.7385 40.1953 11.5385V8.81852Z" fill="black"/>
<path d="M59.1087 0.578524L57.1087 19.8185L55.0687 0.578524H50.5087L54.2287 30.3385H59.2287L61.1487 13.0185L63.0287 30.3385H67.8688L71.6688 0.578524H67.4287L65.3487 19.8585L63.3087 0.578524H59.1087Z" fill="black"/>
<path d="M71.5375 27.0985C71.5375 28.8185 72.5375 30.4585 74.2575 30.4585H74.3775C76.2175 30.4585 77.3375 28.8985 77.8975 27.8985C77.8975 29.6985 78.3775 30.3385 79.2975 30.3385H83.3775V26.3785H82.6175C82.0175 26.3785 81.9375 26.2185 81.9375 25.6985V12.8985C81.9375 10.6585 81.2175 8.65852 77.0975 8.65852H76.2975C72.2575 8.65852 71.7775 11.1385 71.7775 12.7385V15.7785H75.6175V13.4985C75.6175 12.5385 75.8575 12.1385 76.6975 12.1385H76.7775C77.5375 12.1385 77.8175 12.4585 77.8175 13.5385V14.8985C77.8175 15.4985 77.7375 15.5385 77.2975 15.8185C76.6975 16.1385 74.5375 17.0985 73.5775 17.7385C72.0175 18.6985 71.5375 19.9385 71.5375 22.0585V27.0985ZM77.8175 25.0185C77.8175 26.0985 77.4575 26.6185 76.7375 26.6185C76.0575 26.6185 75.7375 26.1385 75.7375 25.2185V22.2585C75.7375 21.4185 75.8575 20.9785 76.2975 20.5385C76.7375 20.0985 77.3375 19.7385 77.8175 19.4585V25.0185Z" fill="black"/>
<path d="M88.3203 8.81852H84.1203V30.3385H88.4003V14.1385C88.4003 13.2985 88.4403 12.8185 89.1203 12.8185C89.8003 12.8185 89.8403 13.2185 89.8403 14.1385V18.9385H94.0003V11.1385C94.0003 9.69852 93.3203 8.69852 91.7603 8.69852H91.6003C89.6003 8.69852 88.6803 10.7385 88.3203 11.5385V8.81852Z" fill="black"/>
<path d="M104.933 12.3785C104.933 10.2985 103.973 8.49852 100.573 8.49852H99.8131C96.5731 8.49852 95.1731 10.2985 95.1731 13.0185V13.6185C95.1731 15.6585 95.5731 17.2185 97.2931 19.1785L99.8131 22.0585C100.893 23.2985 100.973 24.2185 100.973 25.1385V25.4985C100.973 26.4985 100.653 26.9785 99.9731 26.9785C99.2131 26.9785 98.8931 26.6185 98.8931 25.4985V22.4185H94.8931V26.2985C94.8931 28.7385 96.1331 30.6985 99.5331 30.6985H100.373C103.893 30.6985 105.213 28.0985 105.213 25.5385V24.9785C105.213 22.8185 104.813 21.4585 102.813 19.0585L100.213 15.9385C99.4531 15.0185 99.2131 14.6185 99.2131 13.5385V13.1785C99.2131 12.3385 99.3731 11.8585 100.133 11.8585C100.773 11.8585 101.093 12.2585 101.093 13.0585V15.6185H104.933V12.3785Z" fill="black"/>
</svg>
